<?xml version="1.0" encoding="UTF-8"?>
<svg width="128px" height="94px" viewBox="0 0 128 94" version="1.1" xmlns="http://www.w3.org/2000/svg" xmlns:xlink="http://www.w3.org/1999/xlink">
    <!-- Generator: Sketch 44.1 (41455) - http://www.bohemiancoding.com/sketch -->
    <title>Cloudy Night</title>
    <desc>Created with Sketch.</desc>
    <defs>
        <filter x="-7.2%" y="-16.1%" width="126.3%" height="129.8%" filterUnits="objectBoundingBox" id="filter-1">
            <feOffset dx="0" dy="2" in="SourceAlpha" result="shadowOffsetOuter1"></feOffset>
            <feGaussianBlur stdDeviation="2.5" in="shadowOffsetOuter1" result="shadowBlurOuter1"></feGaussianBlur>
            <feColorMatrix values="0 0 0 0 0.00485917412   0 0 0 0 0.499123697   0 0 0 0 0.608152636  0 0 0 1 0" type="matrix" in="shadowBlurOuter1" result="shadowMatrixOuter1"></feColorMatrix>
            <feMerge>
                <feMergeNode in="shadowMatrixOuter1"></feMergeNode>
                <feMergeNode in="SourceGraphic"></feMergeNode>
            </feMerge>
        </filter>
        <path d="M87.8235052,50.2035092 C92.6344137,51.657261 96.5048134,55.2661512 98.315494,59.9062328 C107.405471,57.212721 114.711629,50.2365146 118,41.2584651 C114.598063,43.0702407 110.729851,44.0945393 106.627319,44.0945393 C93.0274004,44.0945393 82.0024882,32.8382512 82.0024882,18.952916 C82.0024882,11.3932222 85.2704037,4.61280917 90.4426084,0.00392145514 C90.2814461,0.00131042829 90.1199743,0 89.9582027,0 C74.6792541,0 62.0744131,11.6894963 60.2550814,26.7868563 C61.5308524,29.4658391 62.4021035,32.384525 62.7872643,35.4592569 C65.1483421,34.292463 67.8302447,33.6332293 70.6737663,33.6332293 C80.1462276,33.6332293 87.8251748,40.9488645 87.8251748,49.9731578 C87.8251748,50.0500668 87.8246171,50.1268518 87.8235052,50.2035092 Z" id="path-2"></path>
    </defs>
    <g id="Page-1" stroke="none" stroke-width="1" fill="none" fill-rule="evenodd">
        <g id="ICONS" transform="translate(-415.000000, -247.000000)">
            <g id="Cloudy-Night" filter="url(#filter-1)" transform="translate(420.500000, 250.000000)">
                <g id="Oval-9">
                    <use fill="#FFFFFF" fill-rule="evenodd" xlink:href="#path-2"></use>
                    <path stroke="#FFFFFF" stroke-width="3.33729754" d="M89.4668995,49.000837 C93.7213421,50.6119956 97.2166113,53.7906623 99.2310995,57.8541245 C105.853073,55.5034109 111.38049,50.6939131 114.734113,44.464384 C112.144175,45.3194358 109.416325,45.7631881 106.627319,45.7631881 C92.097985,45.7631881 80.3338394,33.7521525 80.3338394,18.952916 C80.3338394,12.6182218 82.5022478,6.63766808 86.3314606,1.90534178 C73.8209958,3.54956465 63.738868,13.5853433 61.9716929,26.5201614 C62.926824,28.6149185 63.6396772,30.819463 64.0936109,33.0961602 C66.1763922,32.3523634 68.3971232,31.9645805 70.6737663,31.9645805 C80.7104669,31.9645805 88.9388607,39.4906107 89.4668995,49.000837 Z"></path>
                </g>
                <path d="M86.489075,51.9492335 C93.3279061,53.9052229 98.3252906,60.1986003 98.3252906,67.6600715 C98.3252906,76.686349 91.0065804,84 81.9784939,84 L16.3467968,84 C7.31004813,84 0,76.6843648 0,67.6600715 C0,61.1104288 3.85347375,55.4625245 9.4173428,52.8562622 C8.04306152,49.5130634 7.28335486,45.8390414 7.28335486,41.9830411 C7.28335486,26.512824 19.5116138,13.9717352 34.5959356,13.9717352 C48.438353,13.9717352 59.875632,24.5327961 61.6650839,38.2269429 C64.2048533,36.4716547 67.2645091,35.4470697 70.5575002,35.4470697 C79.3566879,35.4470697 86.489839,42.7627049 86.489839,51.7869982 C86.489839,51.841138 86.4895822,51.8952164 86.4890699,51.9492321 Z" id="Rectangle-3" fill="#FFFFFF"></path>
            </g>
        </g>
    </g>
</svg>